<svg width="1366" height="387" viewBox="0 0 1366 387" fill="none" xmlns="http://www.w3.org/2000/svg">
<path d="M160.98 3.70583C169.587 1.05565 187.795 9.99998 193.091 18.2818C198.719 26.8948 197.395 37.1642 201.368 43.7897C208.319 53.7278 220.899 56.0468 221.23 83.8737C222.223 112.032 190.063 132.957 188.739 148.858C187.414 166.085 191.718 172.71 189.732 180.661C187.414 189.274 175.828 190.267 169.869 194.905C161.924 200.868 160.6 204.181 146.034 212.131C131.799 220.082 121.537 204.843 105.646 203.518C88.7632 202.193 75.5448 221.268 86.4692 223.256C97.3937 225.244 95.1024 227.727 101.392 234.021C108.013 240.646 105.034 247.934 110.661 252.572C115.296 256.547 123.241 252.572 128.869 256.547C134.497 260.522 134.497 274.767 147.407 275.098C163.297 275.43 161.973 256.216 175.546 245.284C188.126 235.014 201.037 242.302 202.03 255.222C203.685 274.767 186.802 299.281 152.042 299.281C127.545 299.281 123.572 282.386 112.979 277.749C103.047 273.442 94.4403 277.748 88.1505 275.098C78.8812 271.123 77.557 256.547 71.9293 249.922C66.9636 244.621 57.0323 242.965 49.7493 243.959C40.1491 245.284 32.8661 254.228 17.9691 252.572C-2.2246 249.922 -2.88669 227.064 19.6243 218.782C34.1902 213.482 66.483 215.775 68.4692 203.518C70.4555 190.599 58.6382 186.623 58.9692 173.373C58.9692 158.465 72.211 153.496 73.8662 138.92C76.1835 122.688 69.943 108.057 71.9293 89.8365C73.9156 72.6104 87.1573 63.0035 92.123 55.0529C96.7576 46.7712 97.7507 38.4893 106.689 31.8639C116.289 25.5697 128.538 26.2323 137.145 22.257C146.083 18.2818 150.387 6.02472 160.98 3.70583ZM144.097 41.8021C129.531 41.8021 116.62 59.0283 113.641 73.2729C110.993 86.5238 116.951 92.818 115.296 104.413C112.979 119.982 93.0668 137.595 92.7357 152.171C92.4047 174.035 110.281 188.611 130.475 182.317C145.041 177.679 145.372 165.091 152.324 159.79C158.945 154.49 169.538 152.502 170.531 141.57C171.855 132.295 172.236 120.976 174.222 109.713C177.201 92.818 198.388 83.8737 193.091 64.3286C189.45 51.7403 173.56 56.7093 166.608 54.3904C158.994 51.7402 156.015 41.8021 144.097 41.8021Z" stroke="#FFDC00" stroke-width="5"/>
<path d="M256.15 129.018C267.737 121.399 272.04 103.842 287.268 110.136C297.862 114.442 294.22 131.337 280.979 148.563C274.689 156.845 277.999 174.734 272.371 184.672C265.088 197.26 253.171 206.867 251.847 217.468C250.191 231.381 261.778 235.688 272.703 222.768C282.303 211.505 281.972 198.585 290.579 188.647C295.876 182.684 301.503 181.359 306.469 170.427C310.773 161.152 308.455 149.226 313.752 137.631C320.704 122.393 344.208 121.399 340.567 147.238C338.58 160.82 328.649 174.071 325.007 185.666C321.366 197.26 325.339 213.161 322.359 222.768C319.711 233.7 310.773 246.62 308.455 253.908C305.145 264.84 310.11 270.14 321.697 263.514C329.642 258.877 335.27 248.607 343.546 248.607C355.132 248.607 354.801 267.821 347.187 276.103C339.242 284.716 329.642 286.041 321.697 292.004C312.759 298.96 306.469 309.23 292.565 309.23C276.675 309.23 273.696 292.335 277.999 281.734C282.303 271.134 303.821 239.332 292.565 234.363C285.613 231.381 278.661 246.62 268.068 254.902C253.502 266.165 235.957 267.821 227.681 256.227C216.094 239.994 233.971 232.706 235.957 215.48C237.943 198.585 232.977 203.886 232.977 191.96C232.977 180.365 251.516 168.108 247.212 162.477C242.909 157.176 233.971 167.777 227.681 168.771C219.405 170.096 213.777 164.796 213.777 155.851C213.777 136.637 244.233 136.637 256.15 129.018Z" stroke="#FFDC00" stroke-width="5"/>
<path d="M382.52 46.2003C383.844 36.5934 392.12 34.9371 399.072 28.3117C404.369 23.3426 404.369 13.0731 415.294 14.067C426.218 15.0608 425.225 26.6553 428.204 32.9495C431.184 39.2436 437.474 43.5501 436.812 54.8134C436.149 65.0828 424.563 71.3769 414.3 70.3831C402.714 69.3893 399.734 82.6402 405.693 89.2656C409.666 93.9034 417.28 89.9281 420.921 97.5474C425.225 106.823 412.976 116.43 411.321 125.706C409.004 137.3 414.963 142.656 414.3 150.606C413.307 163.857 405.444 177.715 411.734 188.647C417.031 197.592 439.873 191.629 439.873 206.536C439.873 217.799 427.955 222.106 415.707 220.781C404.782 219.456 394.52 214.487 385.582 216.474C375.319 219.124 374.326 227.075 362.078 228.4C351.153 229.394 344.863 217.137 351.484 208.855C363.733 193.285 378.299 199.911 383.927 188.316C390.547 175.065 376.183 162.532 378.5 150.606C381.148 137.356 387.155 131.337 392.451 122.393C396.755 115.105 395.1 106.492 388.479 107.486C378.548 109.142 373.582 119.743 361.664 119.743C348.754 119.743 344.45 104.504 352.726 96.8848C364.313 85.9529 385.83 89.5969 390.134 72.0395C393.113 60.1137 380.865 57.1323 382.52 46.2003Z" stroke="#FFDC00" stroke-width="5"/>
<path d="M436.638 154.913C434.651 138.349 451.535 140.337 462.79 130.73C467.094 127.086 470.073 120.129 473.384 114.829C478.68 106.216 488.612 99.5907 495.233 103.897C506.158 110.854 490.93 126.755 496.557 128.743C504.171 131.393 515.757 102.903 532.972 102.903C548.862 102.903 550.517 122.117 561.773 124.767C572.697 127.417 583.622 116.817 597.525 112.179C610.105 107.872 622.023 108.866 629.306 102.241C637.251 94.9529 637.251 71.7638 653.141 73.4202C668.369 75.0765 654.465 96.6092 664.065 99.2594C674.328 102.241 680.949 76.4016 695.183 76.4016C706.439 76.4016 708.756 86.6711 716.039 93.2965C721.667 98.2656 729.281 98.9281 730.274 109.529C731.598 123.442 718.357 139.012 718.357 153.257C718.357 165.182 723.653 170.483 721.667 183.734C720.343 192.016 725.308 197.647 732.922 198.31C742.854 199.304 744.178 213.217 734.578 217.192C727.295 220.174 720.674 217.192 710.743 219.18C700.48 221.167 696.839 229.78 688.563 231.106C677.638 232.762 673.666 224.149 663.734 224.811C655.458 225.474 652.479 233.093 646.851 235.743C641.554 238.062 633.609 237.4 625.995 240.381C618.05 243.363 611.76 250.982 606.464 250.982C589.911 250.982 595.208 231.106 606.464 223.818C614.078 218.849 622.354 209.904 621.692 203.61C620.699 194.997 617.057 183.734 621.692 170.483C625.002 160.876 645.196 133.712 636.258 127.086C629.306 121.786 618.05 136.693 607.126 140.668C593.884 145.637 582.96 139.343 571.373 148.619C560.117 157.563 556.145 169.82 556.145 183.071C556.145 194.997 561.442 200.297 559.455 213.548C557.469 226.468 576.339 222.824 576.67 237.4C577.001 253.632 554.821 251.313 544.227 254.957C532.641 258.932 528.668 264.564 518.406 264.564C506.819 264.564 502.847 249.657 513.441 239.719C521.717 232.099 529.992 229.781 532.31 216.53C534.958 201.622 529.992 194.003 529.992 183.071C529.992 171.145 542.903 159.22 539.593 146.3C536.282 133.38 519.068 133.38 507.151 150.606C500.861 159.551 502.516 168.164 499.537 175.121C492.254 192.016 484.639 196.985 485.301 208.91C485.632 214.873 489.937 219.18 495.564 221.83C503.84 225.805 503.84 241.375 496.226 247.338C490.93 251.644 480.998 251.644 473.053 255.62C464.445 259.926 457.824 268.539 447.231 268.539C430.679 268.539 435.976 248.663 447.231 241.375C454.845 236.406 463.121 227.462 462.459 221.167C461.466 212.554 457.825 204.604 462.459 191.353C465.77 181.746 480.667 165.845 475.37 157.895C473.384 154.913 464.776 157.895 457.162 162.532C449.548 167.17 437.631 163.857 436.638 154.913ZM644.534 191.353C645.527 201.622 653.803 211.561 667.376 211.561C681.28 211.561 696.177 199.966 697.832 186.715C699.487 172.471 693.197 164.189 693.197 153.257C693.197 141.331 701.473 137.024 701.804 123.442C702.135 113.504 688.232 104.228 677.307 109.529C657.113 119.467 660.093 143.981 655.127 159.551C651.155 172.139 643.541 179.427 644.534 191.353Z" stroke="#FFDC00" stroke-width="5"/>
<path d="M794.868 128.957C800.715 118.561 815.981 119.211 820.203 128.957C823.776 137.078 820.528 147.798 825.075 157.219C829.298 166.314 843.914 175.085 845.538 186.13C847.162 200.099 831.896 207.57 822.477 200.749C813.707 194.251 814.357 172.487 806.886 175.085C797.467 178.009 803.638 214.565 802.989 227.235C802.339 239.579 792.92 241.203 788.697 253.872C785.449 263.942 790.971 284.083 786.748 295.778C782.851 306.173 764.337 321.766 772.457 331.186C779.278 339.308 791.945 326.314 802.989 323.715C817.605 320.466 823.776 333.785 815.331 343.531C810.459 349.378 798.766 350.028 789.347 355.875C773.431 365.945 762.063 388.36 751.67 382.838C739.002 376.016 756.542 354.9 742.9 347.429C727.959 339.308 724.386 370.493 706.522 370.493C694.504 370.493 688.333 357.824 680.863 350.353C674.042 343.531 667.871 344.18 659.101 337.034C644.81 325.339 642.536 282.459 675.991 266.216C685.085 261.668 690.282 262.968 699.052 258.745C709.445 253.547 719.189 236.655 735.105 245.101C756.217 256.146 736.079 295.128 753.943 295.128C769.209 295.128 756.867 249 759.14 232.757C761.414 216.839 777.654 188.729 783.5 175.085C789.022 162.416 787.723 140.326 794.868 128.957ZM717.241 290.905C711.394 285.058 710.095 274.338 699.701 274.662C688.008 274.987 683.136 290.905 683.136 299.676C683.136 309.097 686.709 312.345 688.333 317.868C690.282 325.014 688.333 336.059 697.428 339.957C717.241 348.079 740.626 321.766 735.105 308.772C731.207 299.676 722.762 296.427 717.241 290.905Z" stroke="#FFDC00" stroke-width="5"/>
<path d="M894.258 181.36C903.352 172.264 896.207 153.098 911.797 149.85C924.14 147.251 923.815 157.646 933.884 160.245C942.329 162.519 950.449 151.799 961.817 156.672C969.937 160.245 970.911 171.29 967.339 177.462C963.116 184.609 955.646 191.755 954.671 201.501C953.697 210.597 959.218 216.119 956.295 225.54C952.073 238.859 933.234 244.056 931.285 255.426C929.012 268.42 938.106 281.739 949.474 282.713C962.466 283.688 966.689 271.993 978.057 265.496C987.801 259.974 1000.79 268.42 994.947 282.388C989.1 296.682 976.108 296.032 966.689 306.427C956.295 317.797 950.449 340.862 932.26 337.288C918.618 334.689 917.644 315.198 923.49 299.281C929.012 284.338 909.199 279.79 902.703 293.758C896.856 306.427 894.258 326.243 878.343 327.218C866.65 327.868 860.803 315.848 853.982 314.224C847.486 312.6 832.545 315.198 825.075 312.275C801.364 302.854 809.809 265.496 829.622 261.923C840.016 259.974 845.213 265.172 853.658 260.624C861.453 256.401 858.53 240.158 871.197 236.91C883.539 233.661 890.685 240.808 903.677 240.158C934.209 238.534 942.004 178.112 930.961 174.863C920.242 171.615 906.925 217.094 882.24 221.317C859.504 225.215 846.512 204.1 864.051 192.405C872.496 187.207 886.138 189.481 894.258 181.36ZM840.666 286.611C840.341 289.86 842.29 293.758 851.059 294.733C870.547 297.007 887.437 286.936 890.036 277.191C892.309 268.42 888.736 264.197 882.89 263.547C875.744 262.898 872.171 274.917 859.829 279.465C851.059 282.713 841.315 280.114 840.666 286.611Z" stroke="#FFDC00" stroke-width="5"/>
<path d="M1024.5 201.826C1031 196.953 1031.65 190.456 1036.85 186.883C1047.57 179.411 1062.83 188.832 1057.31 205.724C1053.41 217.744 1041.72 228.788 1042.37 237.884C1043.02 247.955 1048.54 252.177 1049.84 262.573C1051.46 274.592 1044.32 289.535 1042.04 302.529C1039.77 316.173 1054.39 317.797 1062.83 299.93C1070.95 282.713 1068.03 266.796 1073.55 256.076C1080.7 242.432 1090.11 239.509 1095.31 231.062C1100.51 222.616 1093.69 210.922 1103.11 203.775C1110.58 197.928 1120 199.877 1127.14 198.577C1134.29 197.278 1140.13 190.131 1148.9 188.832C1160.6 187.207 1170.34 202.151 1158.32 217.094C1147.28 231.062 1128.77 227.489 1120.65 237.235C1110.9 248.929 1115.77 256.4 1105.06 274.592C1095.96 290.185 1081.99 296.357 1078.1 305.128C1072.9 316.823 1078.1 321.695 1073.87 328.842C1069.65 336.314 1061.21 336.639 1055.69 342.161C1049.84 348.008 1047.89 358.079 1036.52 359.703C1024.83 361.327 1017.03 353.206 1015.73 342.486C1014.11 329.817 1021.91 320.071 1021.26 310.326C1020.61 298.306 1016.38 294.408 1015.41 284.338C1014.11 271.344 1024.5 262.573 1022.88 248.929C1022.23 243.082 1019.31 237.559 1014.11 237.884C1007.94 238.209 1002.09 245.356 994.622 246.655C986.502 247.955 980.331 243.732 978.057 235.935C975.459 227.164 981.955 219.043 995.596 214.17C1006.64 210.272 1018.33 206.374 1024.5 201.826Z" stroke="#FFDC00" stroke-width="5"/>
<path d="M1179.94 199.229C1181.24 189.808 1189.36 188.184 1196.18 181.687C1201.38 176.814 1201.38 166.744 1212.1 167.719C1222.81 168.693 1221.84 180.063 1224.76 186.235C1227.69 192.407 1233.86 196.63 1233.21 207.675C1232.56 217.746 1221.19 223.918 1211.12 222.943C1199.75 221.969 1196.83 234.963 1202.68 241.46C1206.57 246.008 1214.04 242.109 1217.62 249.581C1221.84 258.677 1209.82 268.097 1208.2 277.193C1205.92 288.563 1210.15 293.435 1209.5 301.232C1208.52 314.226 1190.66 328.195 1196.83 338.915C1202.03 347.686 1224.44 341.838 1224.44 356.457C1224.44 367.501 1212.74 371.724 1200.73 370.425C1190.01 369.126 1179.94 364.253 1171.17 366.202C1161.1 368.801 1160.13 376.597 1148.11 377.897C1137.39 378.871 1131.22 366.852 1137.72 358.73C1149.73 343.463 1164.02 349.96 1169.55 338.59C1176.04 325.596 1170.2 311.952 1172.47 300.257C1175.07 287.263 1184.49 282.715 1189.68 273.944C1193.91 266.798 1192.28 258.352 1185.79 259.326C1176.04 260.951 1171.17 271.346 1159.48 271.346C1146.81 271.346 1142.59 256.403 1150.71 248.931C1162.08 238.211 1183.19 241.785 1187.41 224.568C1190.33 212.873 1178.32 209.949 1179.94 199.229Z" stroke="#FFDC00" stroke-width="5"/>
<path d="M1292.57 151.149C1311.09 149.85 1309.79 169.341 1321.16 175.188C1332.52 181.36 1340.64 171.29 1351.69 176.487C1370.2 184.934 1365 211.247 1349.09 211.247C1341.29 211.247 1339.02 206.049 1333.5 205.074C1327 204.1 1316.93 211.896 1310.76 206.699C1304.92 201.826 1312.39 184.284 1301.02 182.984C1282.5 181.035 1287.38 214.82 1316.93 224.24C1343.57 232.362 1358.18 252.827 1358.18 273.293C1358.18 284.987 1355.59 296.032 1346.17 299.605C1339.02 302.529 1333.5 298.631 1327.98 304.478C1322.46 309.676 1315.96 329.817 1298.1 328.842C1278.61 327.868 1280.56 309.676 1270.49 304.478C1261.72 299.606 1249.37 306.752 1238.33 297.007C1222.09 282.388 1238.66 250.553 1258.79 259.324C1270.81 264.847 1264.97 281.414 1275.36 285.962C1283.48 289.535 1286.08 278.165 1296.15 278.165C1306.22 278.165 1306.86 287.586 1318.88 284.987C1329.93 282.713 1335.45 249.579 1313.69 241.458C1296.15 235.285 1254.9 233.012 1254.9 205.074C1254.9 187.532 1266.91 187.208 1272.44 177.462C1276.98 169.341 1276.01 152.448 1292.57 151.149Z" stroke="#FFDC00" stroke-width="5"/>
</svg>
